<svg width="316" height="316" viewBox="0 0 316 316" fill="none" xmlns="http://www.w3.org/2000/svg">
<g clip-path="url(#clip0_170_14)">
<path fill-rule="evenodd" clip-rule="evenodd" d="M158 0C245.263 0 316 72.5209 316 161.996C316 233.554 270.78 294.259 208.039 315.699C200.028 317.295 197.184 312.236 197.184 307.923C197.184 302.582 197.374 285.14 197.374 263.462C197.374 248.357 192.318 238.499 186.645 233.474C221.832 229.461 258.804 215.761 258.804 153.541C258.804 135.845 252.674 121.404 242.53 110.06C244.173 105.968 249.593 89.4905 240.982 67.1809C240.982 67.1809 227.741 62.8401 197.579 83.7909C184.955 80.2043 171.43 78.3997 158 78.3365C144.57 78.3997 131.061 80.2043 118.453 83.7909C88.2588 62.8401 74.9868 67.1809 74.9868 67.1809C66.4074 89.4905 71.8268 105.968 73.4542 110.06C63.358 121.404 57.1803 135.845 57.1803 153.541C57.1803 215.603 94.0733 229.513 129.165 233.605C124.646 237.65 120.554 244.786 119.132 255.261C110.126 259.401 87.2476 266.565 73.154 241.806C73.154 241.806 64.7958 226.241 48.9326 225.104C48.9326 225.104 33.5276 224.899 47.8582 234.948C47.8582 234.948 58.2072 239.925 65.3962 258.648C65.3962 258.648 74.6709 287.561 118.626 277.765C118.705 291.306 118.848 304.067 118.848 307.923C118.848 312.204 115.94 317.216 108.056 315.715C45.267 294.306 0 233.57 0 161.996C0 72.5209 70.7524 0 158 0Z" fill="white"/>
</g>
<defs>
<clipPath id="clip0_170_14">
<rect width="316" height="316" fill="white"/>
</clipPath>
</defs>
</svg>
